<svg width="24" height="17" viewBox="0 0 24 17" fill="none" xmlns="http://www.w3.org/2000/svg">
<path fill-rule="evenodd" clip-rule="evenodd" d="M0 1.125C0 0.826631 0.118526 0.540483 0.329505 0.329505C0.540483 0.118526 0.826631 0 1.125 0H22.875C23.1734 0 23.4595 0.118526 23.6705 0.329505C23.8815 0.540483 24 0.826631 24 1.125C24 1.42337 23.8815 1.70952 23.6705 1.9205C23.4595 2.13147 23.1734 2.25 22.875 2.25H1.125C0.826631 2.25 0.540483 2.13147 0.329505 1.9205C0.118526 1.70952 0 1.42337 0 1.125ZM0 8.5C0 8.20163 0.118526 7.91548 0.329505 7.7045C0.540483 7.49353 0.826631 7.375 1.125 7.375H22.875C23.1734 7.375 23.4595 7.49353 23.6705 7.7045C23.8815 7.91548 24 8.20163 24 8.5C24 8.79837 23.8815 9.08452 23.6705 9.29549C23.4595 9.50647 23.1734 9.625 22.875 9.625H1.125C0.826631 9.625 0.540483 9.50647 0.329505 9.29549C0.118526 9.08452 0 8.79837 0 8.5ZM1.125 14.75C0.826631 14.75 0.540483 14.8685 0.329505 15.0795C0.118526 15.2905 0 15.5766 0 15.875C0 16.1734 0.118526 16.4595 0.329505 16.6705C0.540483 16.8815 0.826631 17 1.125 17H22.875C23.1734 17 23.4595 16.8815 23.6705 16.6705C23.8815 16.4595 24 16.1734 24 15.875C24 15.5766 23.8815 15.2905 23.6705 15.0795C23.4595 14.8685 23.1734 14.75 22.875 14.75H1.125Z" fill="white"/>
</svg>
